<svg id="Capa_1" enable-background="new 0 0 512 512" height="512" viewBox="0 0 512 512" width="512" xmlns="http://www.w3.org/2000/svg"><g><path d="m53.406 429.086h405.188c10.545 0 20.156-4.338 27.129-11.311 6.973-6.945 11.281-16.555 11.281-27.1v-11.112c-160.669 0-321.339 0-482.009 0v11.112c0 10.545 4.337 20.154 11.311 27.1 6.945 6.973 16.555 11.311 27.1 11.311zm301.978-277.911c-4.139 0-7.483-3.346-7.483-7.512 0-4.139 3.345-7.484 7.483-7.484h12.501c4.139 0 7.483 3.346 7.483 7.484v58.393c0 4.139-3.345 7.512-7.483 7.512-4.167 0-7.512-3.373-7.512-7.512v-50.881zm6.236-48.644c19.445 0 37.022 7.879 49.749 20.607 12.728 12.727 20.579 30.304 20.579 49.72 0 19.418-7.852 37.021-20.579 49.749-13.861 13.861-32.656 21.232-52.244 20.551v62.534c0 4.166-3.373 7.512-7.512 7.512h-202.565c-4.139 0-7.512-3.346-7.512-7.512v-134.08c0-4.139 3.373-7.484 7.512-7.484h84.304c4.138 0 7.483 3.346 7.483 7.484 0 4.166-3.346 7.512-7.483 7.512h-63.412c26.787 21.996 53.604 44.023 80.392 66.019 16.27-13.35 32.513-26.701 48.784-40.054-4.082-7.908-6.719-16.668-7.54-25.965h-24.266c-4.139 0-7.483-3.346-7.483-7.512 0-4.139 3.345-7.484 7.483-7.484h24.548c1.956-15.93 9.271-30.189 20.042-40.989 12.728-12.729 30.303-20.608 49.72-20.608zm-17.49 138.473c-12.388-3.174-23.471-9.637-32.23-18.396-1.588-1.586-3.09-3.26-4.508-4.988l-25.626 21.033 62.363 51.223v-48.872zm56.638-107.263c-10.035-10.007-23.869-16.186-39.148-16.186-15.251 0-29.084 6.18-39.118 16.186-10.007 10.006-16.186 23.84-16.186 39.117 0 15.279 6.179 29.113 16.186 39.119 10.034 10.036 23.867 16.214 39.118 16.214 15.278 0 29.112-6.178 39.148-16.214 10.006-10.006 16.185-23.84 16.185-39.119 0-15.277-6.18-29.111-16.185-39.117zm-170.11 114.605-60.719 49.861h160.783l-60.72-49.861-14.938 12.246c-2.835 2.324-6.859 2.211-9.581-.084zm-74.127 41.529 62.363-51.223-62.363-51.194zm76.622 121.947c-4.139 0-7.484-3.373-7.484-7.512s3.346-7.482 7.484-7.482h45.694c4.138 0 7.512 3.344 7.512 7.482 0 4.139-3.374 7.512-7.512 7.512zm-187.23-68.882c0-4.139 3.345-7.512 7.483-7.512 4.139 0 7.512 3.373 7.512 7.512v21.6h390.192v-209c0-4.139 3.346-7.484 7.483-7.484 4.139 0 7.513 3.346 7.513 7.484v209h32.174c7.512 0 13.72 6.236 13.72 13.748v12.388c0 14.684-6.01 28.035-15.676 37.728-9.666 9.668-23.018 15.676-37.73 15.676h-405.188c-14.685 0-28.036-6.008-37.73-15.676-9.666-9.693-15.676-23.045-15.676-37.728v-12.388c0-7.512 6.208-13.748 13.748-13.748h32.175zm420.183-221.36c0 4.139-3.374 7.483-7.513 7.483-4.138 0-7.483-3.345-7.483-7.483v-14.57c0-6.606-2.721-12.643-7.086-17.008s-10.403-7.088-17.008-7.088h-342.003c-6.634 0-12.643 2.723-17.008 7.088-4.366 4.365-7.087 10.402-7.087 17.008v201.942c0 4.139-3.373 7.512-7.512 7.512s-7.483-3.373-7.483-7.512v-201.942c0-10.744 4.393-20.524 11.48-27.609 7.058-7.088 16.837-11.48 27.609-11.48h342.004c10.743 0 20.522 4.393 27.609 11.48 7.086 7.086 11.48 16.865 11.48 27.609v14.57z"/></g></svg>