<?xml version="1.0" encoding="UTF-8" standalone="no"?>
<svg width="1194px" height="369px" viewBox="0 0 1194 369" version="1.1" xmlns="http://www.w3.org/2000/svg" xmlns:xlink="http://www.w3.org/1999/xlink" xmlns:sketch="http://www.bohemiancoding.com/sketch/ns">
    <!-- Generator: Sketch 3.3.3 (12072) - http://www.bohemiancoding.com/sketch -->
    <title>wgepoint-logo-vector</title>
    <desc>Created with Sketch.</desc>
    <defs></defs>
    <g id="Page-1" stroke="none" stroke-width="1" fill="none" fill-rule="evenodd" sketch:type="MSPage">
        <g id="wgepoint-logo" sketch:type="MSLayerGroup" fill="#333432">
            <path d="M304.869,220.021 C303.299,216.86 300.458,215.198 297.131,214.55 C296.295,214.387 295.646,213.759 295.292,212.985 C293.18,208.372 289.693,205.359 282.822,204.727 C281.702,204.624 280.794,203.776 280.499,202.69 C276.288,187.167 270.355,173.406 263.053,163.85 C248.947,145.389 182.167,143.48 155.249,143.502 C153.383,143.503 151.846,142.068 151.686,140.21 C150.189,122.915 148.646,109.106 144.961,88.529 C144.072,83.56 137.982,81.599 134.374,85.128 C131.723,87.722 130.523,91.465 131.149,95.12 C134.242,113.203 135.503,124.548 136.873,140.018 C137.055,142.081 135.48,143.873 133.41,143.957 C99.211,145.349 63.239,150.083 49.42,160.031 C45.159,163.098 33.275,173.951 25.766,203.11 C25.504,204.127 24.662,204.872 23.631,205.077 C18.198,206.158 15.342,208.919 13.478,213.067 C13.133,213.835 12.423,214.4 11.597,214.565 C8.305,215.224 5.498,216.884 3.941,220.019 C0.879,226.174 -1.155,244.208 3.64,251.433 C4.948,253.402 6.731,254.644 8.747,255.352 C9.525,255.626 10.08,256.3 10.325,257.087 C11.731,261.609 14.067,264.977 18.605,266.752 C19.51,267.106 20.082,268.003 20.156,268.973 C21.674,288.958 26.54,307.953 36.768,318.6 C53.8,336.334 93.986,347.49 144.833,348.587 C145.577,348.603 146,349.207 146,349.951 L146,353.136 C146,353.894 145.743,355 144.985,355 L144.059,355 C140.068,355 136.491,357.62 136.284,361.606 C136.063,365.856 139.442,369 143.642,369 L162.375,369 C166.366,369 169.943,366.38 170.15,362.394 C170.372,358.144 166.992,355 162.792,355 L162.197,355 C161.314,355 161,353.749 161,353.197 L161,349.91 C161,349.169 161.63,348.567 162.371,348.547 C203.209,347.449 249.267,339.25 270.204,318.763 C280.327,308.856 285.719,290.529 287.209,269.497 C287.286,268.416 288.005,267.463 289.042,267.148 C294.269,265.564 296.939,262.024 298.479,257.093 C298.727,256.3 299.288,255.625 300.071,255.348 C302.083,254.639 303.862,253.397 305.167,251.43 C309.963,244.21 307.931,226.174 304.869,220.021 L304.869,220.021 Z M47.397,308.391 C24.968,285.043 33.339,189.764 58.03,171.992 C84.271,153.101 237.222,154.317 251.342,172.797 C276.025,205.099 281.237,287.371 259.92,308.228 C224.708,342.687 79.848,342.175 47.397,308.391 L47.397,308.391 Z" id="Fill-1" sketch:type="MSShapeGroup"></path>
            <path d="M171.707,65.257 L190.405,60.661 C193.865,59.811 196.463,56.694 196.283,53.136 C196.04,48.345 191.573,45.191 187.157,46.285 L157.224,53.642 C153.926,54.452 152.97,58.656 155.575,60.836 C157.48,62.43 160.54,63.967 165.314,65.228 C167.4,65.78 169.612,65.772 171.707,65.257" id="Fill-2" sketch:type="MSShapeGroup"></path>
            <path d="M219.103,96.812 L223.471,97.913 C224.075,98.064 224.681,98.138 225.278,98.138 C228.574,98.138 231.575,95.91 232.418,92.568 C233.413,88.623 231.02,84.617 227.074,83.621 L222.706,82.52 C218.762,81.529 214.754,83.916 213.758,87.865 C212.764,91.81 215.157,95.816 219.103,96.812" id="Fill-3" sketch:type="MSShapeGroup"></path>
            <path d="M82.016,25.476 C90.866,25.476 94.641,29.251 94.641,38.1 C94.641,39.994 96.177,41.531 98.073,41.531 C99.968,41.531 101.503,39.994 101.503,38.1 C101.503,29.251 105.279,25.476 114.129,25.476 C116.024,25.476 117.56,23.939 117.56,22.044 C117.56,20.15 116.024,18.614 114.129,18.614 C105.279,18.614 101.503,14.838 101.503,5.987 C101.503,4.093 99.968,2.556 98.073,2.556 C96.177,2.556 94.641,4.093 94.641,5.987 C94.641,14.838 90.866,18.614 82.016,18.614 C80.12,18.614 78.585,20.15 78.585,22.044 C78.585,23.939 80.12,25.476 82.016,25.476" id="Fill-4" sketch:type="MSShapeGroup"></path>
            <path d="M127.618,305.637 C99.309,305.637 76.796,285.444 75.25,258.667 C75.054,255.28 72.132,252.664 68.766,252.891 C65.38,253.088 62.794,255.99 62.99,259.378 C64.916,292.751 92.699,317.919 127.618,317.919 C131.01,317.919 133.758,315.17 133.758,311.778 C133.758,308.386 131.01,305.637 127.618,305.637" id="Fill-5" sketch:type="MSShapeGroup"></path>
            <path d="M184.647,176.811 C176.429,176.991 176.923,189.407 184.922,189.087 C205.579,188.72 209.396,202.268 209.778,203.88 C211.549,211.868 223.454,209.173 221.781,201.278 C219.934,192.57 209.881,176.256 184.647,176.811" id="Fill-6" sketch:type="MSShapeGroup"></path>
            <path d="M100.121,204.705 C100.288,204.053 104.525,188.795 125.158,189.286 C133.172,189.562 133.664,177.224 125.477,177.01 C100.819,176.391 90.275,192.959 88.181,201.825 C86.341,209.611 98.108,212.534 100.121,204.705" id="Fill-7" sketch:type="MSShapeGroup"></path>
            <path d="M122.68,219.859 C123.997,220.035 125.005,218.652 124.429,217.454 C122.37,213.168 119.403,210.359 115.54,210.359 C99.191,210.359 98.719,260.579 115.475,260.579 C124.346,260.579 128.423,246.502 127.871,233.254 C127.815,231.9 126.245,231.202 125.153,232.006 C121.693,234.556 116.146,232.225 116.146,226.436 C116.146,222.139 119.469,219.429 122.68,219.859" id="Fill-8" sketch:type="MSShapeGroup"></path>
            <path d="M202.396,232.537 C198.872,234.256 194.27,231.556 194.27,226.436 C194.27,222.711 196.914,219.907 199.906,219.814 C201.255,219.772 202.127,218.366 201.525,217.157 C199.474,213.041 196.561,210.359 192.789,210.359 C176.44,210.359 175.968,260.579 192.724,260.579 C201.412,260.579 205.495,247.079 205.139,234.077 C205.102,232.701 203.633,231.933 202.396,232.537" id="Fill-9" sketch:type="MSShapeGroup"></path>
            <path d="M204.059,77.823 C160.857,66.939 169.291,69.064 147.962,63.691 C146.697,63.373 146.123,61.879 146.857,60.8 C156.443,46.688 147.91,59.249 179.923,12.124 C182.171,8.815 181.721,4.148 178.526,1.74 C175.137,-0.816 170.34,0.005 167.983,3.474 C138.27,47.215 133.006,54.994 133.006,54.994 C134.258,47.986 134.977,45.512 134.256,43.056 C133.556,40.672 133.313,39.858 132.555,37.532 C131.456,34.158 128.12,31.846 124.601,32.305 C119.861,32.923 117.073,37.602 118.483,41.914 C119.806,45.961 121.043,50.106 122.209,54.314 C122.592,55.695 121.33,56.983 119.94,56.632 L42.339,37.083 C38.391,36.09 34.386,38.479 33.392,42.43 C32.398,46.376 34.792,50.379 38.738,51.375 L95.375,65.643 C97.265,66.119 97.258,68.808 95.364,69.273 L46.609,81.257 C42.716,82.213 39.954,85.998 40.729,89.931 C41.553,94.106 45.684,96.668 49.718,95.668 L111.775,80.415 C113.439,80.006 114.732,81.865 113.768,83.282 L92.459,114.651 C90.456,117.599 90.613,121.656 93.131,124.179 C96.519,127.573 101.942,126.92 104.495,123.16 C129.438,86.442 121.352,98.345 135.77,77.12 C136.218,76.462 137.052,76.142 137.824,76.337 C159.617,81.827 178.529,86.591 200.459,92.115 C204.451,93.113 208.419,90.681 209.405,86.768 C210.399,82.822 208.005,78.819 204.059,77.823" id="Fill-10" sketch:type="MSShapeGroup"></path>
            <path d="M315.754,173.859 C314.954,171.062 316.552,169 319.349,169 L342.718,169 C344.317,169 345.915,170.644 346.315,172.042 L363.493,240 L364.29,240 L395.251,169.444 C395.85,168.245 397.049,167 398.647,167 L402.241,167 C404.04,167 405.24,168.245 405.637,169.444 L436.598,240 L437.397,240 L454.576,172.042 C454.975,170.644 456.573,169 458.17,169 L481.541,169 C484.336,169 485.936,171.062 485.136,173.859 L447.384,308.146 C446.984,309.743 445.387,311 443.789,311 L440.592,311 C439.196,311 437.797,309.948 437.199,308.749 L400.644,227 L400.045,227 L363.692,308.749 C363.093,309.948 361.694,311 360.296,311 L357.101,311 C355.501,311 353.904,309.743 353.504,308.146 L315.754,173.859" id="Fill-11" sketch:type="MSShapeGroup"></path>
            <path d="M509.273,250.026 C519.659,250.026 527.45,254.022 527.45,254.022 C527.45,245.033 525.452,239.84 514.666,239.84 C508.274,239.84 497.488,241.238 491.496,243.036 C487.901,244.234 486.302,241.637 485.904,238.241 L483.706,224.06 C483.107,220.065 485.303,218.267 487.3,217.669 C489.499,216.869 505.872,214.672 518.256,214.672 C546.819,214.672 557,226.258 557,253.622 L557,304.557 C557,306.954 554.415,309 552.217,309 L542.432,309 C541.033,309 539.433,308.576 538.236,305.98 L537.524,304.496 C536.388,302.149 533.384,301.412 531.317,303.001 C526.016,307.075 518.747,311.151 507.276,311.151 C489.099,311.151 475.317,299.165 475.317,280.788 C475.317,263.011 488.299,250.026 509.273,250.026 L509.273,250.026 Z M510.996,287.866 C518.173,291.004 525.651,285.576 525.651,278.591 C525.651,273.197 520.859,268.403 515.265,268.403 C507.071,268.403 501.022,278.696 508.424,286.084 C509.166,286.824 510.036,287.446 510.996,287.866 L510.996,287.866 Z" id="Fill-12" sketch:type="MSShapeGroup"></path>
            <path d="M664,305.955 C664,339.312 642.478,355.092 614.712,355.092 C600.93,355.092 584.976,348.9 580.381,345.105 C578.984,343.906 578.597,341.909 579.395,339.911 L586.394,323.133 C587.191,321.335 589.79,320.136 591.79,321.335 C596.182,323.932 603.775,328.725 614.162,328.725 C625.534,328.725 633.719,324.342 633.738,310.397 C633.74,308.34 631.669,306.905 629.765,307.683 C625.32,309.5 618.533,311.148 612.365,311.148 C587.796,311.148 566.623,295.169 566.623,262.61 C566.623,236.244 586.199,214.672 612.166,214.672 C627.898,214.672 637.913,223.128 641.66,226.981 C642.442,227.785 643.798,227.471 644.162,226.409 L645.923,221.428 C646.721,219.032 648.519,217 650.716,217 L659.706,217 C662.103,217 664,218.867 664,221.064 L664,305.955 L664,305.955 Z M616.759,282.585 C628.144,282.585 636.335,273.996 636.335,262.81 C636.335,251.825 628.144,243.036 616.759,243.036 C605.774,243.036 597.186,251.825 597.186,262.81 C597.186,273.996 605.774,282.585 616.759,282.585 L616.759,282.585 Z" id="Fill-13" sketch:type="MSShapeGroup"></path>
            <path d="M720.281,214.672 C743.65,214.672 764.025,232.449 764.025,257.817 C764.025,259.215 763.826,262.509 763.625,263.906 C763.426,266.304 761.228,268 759.23,268 L705.423,268 C703.64,268 702.305,269.59 702.773,271.31 C704.483,277.598 710.839,283.833 721.478,283.833 C727.472,283.833 735.062,280.811 739.056,278.015 C741.054,276.218 743.451,276.205 744.849,278.003 L755.037,291.38 C756.433,293.178 756.833,295.97 754.836,297.968 C746.847,306.158 735.261,311.15 720.681,311.15 C693.116,311.15 672.341,291.375 672.341,262.811 C672.341,236.845 692.915,214.672 720.281,214.672 L720.281,214.672 Z M732.866,250 C732.466,244 727.271,238.615 719.481,238.615 C711.892,238.615 706.898,244 705.699,250 L732.866,250 L732.866,250 Z" id="Fill-14" sketch:type="MSShapeGroup"></path>
            <path d="M804,352.095 C804,354.512 801.657,356 799.24,356 L777.667,356 C775.25,356 773,354.512 773,352.095 L773,221.064 C773,218.867 775.27,217 777.667,217 L786.655,217 C788.853,217 790.65,219.032 791.449,221.428 L792.975,225.807 C793.442,227.17 795.169,227.548 796.194,226.535 C800.274,222.502 810.107,214.693 825.207,214.693 C851.172,214.693 870.548,236.254 870.548,262.62 C870.548,295.179 849.574,311.153 825.006,311.153 C818.135,311.153 811.214,309.283 806.91,307.422 C805.446,306.789 804,307.851 804,309.447 L804,352.095 L804,352.095 Z M820.611,282.585 C831.599,282.585 840.187,273.996 840.187,262.81 C840.187,251.825 831.599,243.036 820.611,243.036 C809.226,243.036 801.036,251.825 801.036,262.81 C801.036,273.996 809.226,282.585 820.611,282.585 L820.611,282.585 Z" id="Fill-15" sketch:type="MSShapeGroup"></path>
            <path d="M926.797,214.672 C953.164,214.672 974.735,236.644 974.735,262.61 C974.735,288.977 953.164,311.148 926.797,311.148 C900.43,311.148 878.659,288.977 878.659,262.61 C878.659,236.644 900.43,214.672 926.797,214.672 L926.797,214.672 Z M926.797,282.585 C937.382,282.585 945.973,273.396 945.973,262.61 C945.973,252.024 937.382,243.036 926.797,243.036 C916.011,243.036 907.423,252.024 907.423,262.61 C907.423,273.396 916.011,282.585 926.797,282.585 L926.797,282.585 Z" id="Fill-16" sketch:type="MSShapeGroup"></path>
            <path d="M982.667,186.708 C982.667,177.12 990.256,169.13 999.843,169.13 C1009.431,169.13 1017.222,177.12 1017.222,186.708 C1017.222,196.096 1009.431,203.886 999.843,203.886 C990.256,203.886 982.667,196.096 982.667,186.708 L982.667,186.708 Z M985,221.064 C985,218.467 986.86,217 989.258,217 L1010.83,217 C1013.227,217 1015,218.467 1015,221.064 L1015,304.557 C1015,306.954 1013.227,309 1010.83,309 L989.258,309 C986.86,309 985,306.954 985,304.557 L985,221.064 L985,221.064 Z" id="Fill-17" sketch:type="MSShapeGroup"></path>
            <path d="M1028,221.064 C1028,218.467 1029.852,217 1032.25,217 L1041.237,217 C1042.636,217 1044.432,217.833 1045.433,219.631 L1047.747,225.814 C1048.235,227.134 1049.94,227.432 1050.894,226.396 C1055.806,221.063 1062.924,214.693 1077.521,214.693 C1106.283,214.693 1116,235.045 1116,260.414 L1116,304.557 C1116,306.954 1114.143,309 1111.947,309 L1090.174,309 C1087.578,309 1086,306.954 1086,304.557 L1086,260.014 C1086,251.225 1082.685,243.036 1072.298,243.036 C1063.112,243.036 1058,249.427 1058,258.815 L1058,304.557 C1058,306.554 1057.417,309 1054.22,309 L1032.25,309 C1029.833,309 1028,306.974 1028,304.557 L1028,221.064" id="Fill-18" sketch:type="MSShapeGroup"></path>
            <path d="M1136,246.656 C1136,245.208 1134.817,244 1133.369,244 L1128.399,244 C1126.203,244 1124,242.037 1124,239.64 L1124,221.064 C1124,218.467 1126.203,217 1128.399,217 L1133.369,217 C1134.817,217 1136,215.496 1136,214.048 L1136,191.103 C1136,188.686 1137.968,187 1140.385,187 L1162.355,187 C1164.554,187 1166,188.705 1166,191.103 L1166,214.048 C1166,215.496 1167.523,217 1168.971,217 L1184.927,217 C1187.324,217 1189,218.467 1189,221.064 L1189,239.64 C1189,242.057 1187.344,244 1184.927,244 L1168.971,244 C1167.523,244 1166,245.208 1166,246.656 L1166,276.193 C1166,280.588 1168.373,282.585 1172.368,282.585 C1175.563,282.585 1181.644,281.187 1183.84,280.588 C1186.238,279.988 1188.478,280.987 1189.078,283.384 L1193.095,300.762 C1193.694,303.558 1192.706,304.757 1190.11,305.955 C1183.917,308.551 1173.541,311.148 1163.753,311.148 C1146.175,311.148 1136,299.962 1136,278.989 L1136,246.656" id="Fill-19" sketch:type="MSShapeGroup"></path>
        </g>
    </g>
</svg>